<svg xmlns="http://www.w3.org/2000/svg" viewBox="0 0 22 39" width="22" height="39">
	<style>
		tspan { white-space:pre }
		.shp0 { opacity: 0.522;fill: #ffce2d } 
	</style>
	<path id="3" class="shp0" d="M11.02,20.63c1.81,0 3.17,0.55 4.06,1.64c0.9,1.09 1.35,2.79 1.35,5.09c0,2.17 -0.47,3.84 -1.41,5.01c-0.94,1.18 -2.24,1.76 -3.9,1.76c-1.57,0 -2.84,-0.61 -3.81,-1.83c-0.96,-1.22 -1.45,-2.8 -1.45,-4.75h-4.93l-0.08,0.15c-0.07,3.25 0.89,5.79 2.88,7.6c1.99,1.82 4.42,2.73 7.3,2.73c3.08,0 5.61,-0.95 7.58,-2.86c1.97,-1.9 2.96,-4.53 2.96,-7.88c0,-2.03 -0.45,-3.82 -1.35,-5.37c-0.9,-1.55 -2.28,-2.67 -4.14,-3.36c1.59,-0.78 2.82,-1.92 3.68,-3.41c0.86,-1.5 1.29,-3.07 1.29,-4.71c0,-3.32 -0.91,-5.89 -2.74,-7.71c-1.83,-1.82 -4.27,-2.73 -7.31,-2.73c-2.88,0 -5.25,0.96 -7.11,2.87c-1.86,1.91 -2.76,4.3 -2.69,7.16l0.08,0.15h4.9c0,-1.86 0.46,-3.36 1.38,-4.51c0.92,-1.14 2.1,-1.71 3.54,-1.71c1.57,0 2.77,0.57 3.59,1.71c0.82,1.14 1.23,2.71 1.23,4.71c0,1.95 -0.39,3.49 -1.18,4.63c-0.79,1.14 -2.04,1.71 -3.75,1.71h-3.53v3.88z" />
</svg>