<svg xmlns="http://www.w3.org/2000/svg" viewBox="0 0 21 39" width="21" height="39">
	<style>
		tspan { white-space:pre }
		.shp0 { opacity: 0.522;fill: #ffce2d } 
	</style>
	<path id="5" class="shp0" d="M7.36,18.51c0.72,-0.63 1.81,-0.95 3.26,-0.95c1.64,0 2.9,0.75 3.78,2.25c0.88,1.5 1.32,3.48 1.32,5.95c0,2.62 -0.42,4.68 -1.27,6.16c-0.85,1.48 -2.11,2.22 -3.78,2.22c-1.46,0 -2.63,-0.57 -3.52,-1.7c-0.89,-1.13 -1.33,-2.75 -1.33,-4.85l-4.85,0.1l-0.05,0.13c-0.07,3.3 0.85,5.83 2.74,7.59c1.9,1.76 4.23,2.64 7.01,2.64c3.33,0 5.87,-1.14 7.6,-3.42c1.74,-2.28 2.6,-5.25 2.6,-8.92c0,-3.79 -0.83,-6.78 -2.49,-8.98c-1.66,-2.19 -3.94,-3.27 -6.86,-3.24c-1.07,0.03 -2.01,0.26 -2.84,0.67c-0.83,0.41 -1.56,0.94 -2.18,1.59l0.96,-10.97h12.29v-4.24h-16.58l-1.78,20.36l4.44,0.43c0.29,-1.25 0.79,-2.2 1.51,-2.83z" />
</svg>