<svg xmlns="http://www.w3.org/2000/svg" viewBox="0 0 22 39" width="22" height="39">
	<style>
		tspan { white-space:pre }
		.shp0 { opacity: 0.522;fill: #ffce2d } 
	</style>
	<path id="6" class="shp0" d="M12.61 0.01C13.73 0.01 14.8 0.15 15.83 0.44C16.87 0.73 17.8 1.12 18.65 1.61L17.66 5.39C16.9 4.93 16.13 4.59 15.35 4.35C14.57 4.11 13.67 3.99 12.63 3.99C10.57 3.99 8.9 4.99 7.62 6.98C6.34 8.97 5.7 11.63 5.7 14.96L5.7 16C6.55 15.04 7.55 14.29 8.7 13.76C9.85 13.22 11.11 12.96 12.48 12.96C15.27 12.96 17.48 14.11 19.1 16.41C20.71 18.71 21.52 21.67 21.52 25.27C21.52 29 20.59 32.06 18.73 34.45C16.87 36.85 14.43 38.04 11.41 38.04C8.25 38.04 5.65 36.75 3.62 34.16C1.59 31.57 0.57 27.96 0.57 23.34L0.57 15.32C0.57 10.73 1.72 7.03 4 4.22C6.29 1.41 9.15 0.01 12.61 0.01ZM11.21 16.74C9.91 16.74 8.79 17.05 7.85 17.68C6.91 18.31 6.19 19.16 5.7 20.25L5.7 23.65C5.7 26.96 6.23 29.55 7.3 31.39C8.37 33.24 9.74 34.16 11.41 34.16C12.94 34.16 14.15 33.3 15.05 31.58C15.94 29.86 16.39 27.76 16.39 25.27C16.39 22.77 15.93 20.72 15.01 19.13C14.08 17.54 12.82 16.74 11.21 16.74Z" />
</svg>