<svg xmlns="http://www.w3.org/2000/svg" viewBox="0 0 21 39" width="21" height="39">
	<style>
		tspan { white-space:pre }
		.shp0 { opacity: 0.522;fill: #ffce2d } 
	</style>
	<path id="8" class="shp0" d="M20.2 10.19C20.2 12.14 19.73 13.84 18.8 15.31C17.87 16.77 16.61 17.86 15.02 18.57C16.83 19.33 18.27 20.5 19.35 22.09C20.42 23.67 20.96 25.49 20.96 27.56C20.96 30.94 20 33.54 18.08 35.34C16.16 37.14 13.66 38.04 10.58 38.04C7.45 38.04 4.92 37.14 3 35.34C1.08 33.54 0.12 30.94 0.12 27.56C0.12 25.48 0.65 23.64 1.72 22.06C2.78 20.48 4.23 19.31 6.06 18.54C4.47 17.83 3.21 16.75 2.3 15.28C1.39 13.82 0.93 12.12 0.93 10.19C0.93 6.96 1.81 4.45 3.57 2.67C5.33 0.9 7.65 0.01 10.53 0.01C13.39 0.01 15.71 0.9 17.51 2.67C19.3 4.45 20.2 6.96 20.2 10.19ZM15.83 27.38C15.83 25.35 15.33 23.69 14.33 22.42C13.34 21.14 12.07 20.5 10.53 20.5C8.97 20.5 7.7 21.13 6.73 22.4C5.76 23.67 5.27 25.33 5.27 27.38C5.27 29.5 5.75 31.15 6.7 32.34C7.66 33.54 8.95 34.13 10.58 34.13C12.12 34.13 13.38 33.53 14.36 32.33C15.34 31.13 15.83 29.48 15.83 27.38ZM15.02 10.32C15.02 8.46 14.61 6.93 13.78 5.75C12.95 4.56 11.86 3.97 10.53 3.97C9.17 3.97 8.09 4.54 7.29 5.68C6.48 6.83 6.08 8.37 6.08 10.32C6.08 12.23 6.49 13.75 7.3 14.89C8.11 16.02 9.21 16.59 10.58 16.59C11.91 16.59 12.99 16.02 13.8 14.89C14.61 13.75 15.02 12.23 15.02 10.32Z" />
</svg>